<svg xmlns="http://www.w3.org/2000/svg" xmlns:xlink="http://www.w3.org/1999/xlink" width="1080" viewBox="0 0 810 809.999993" height="1080" preserveAspectRatio="xMidYMid meet"><path fill="#000000" d="M 25.175781 479.371094 C 22.097656 472.398438 21.363281 464.167969 22.28125 455.332031 C 21.386719 455.332031 20.441406 455.144531 19.46875 454.566406 C 11 449.703125 12.707031 472.480469 12.972656 475.636719 C 13.289062 479.160156 12.523438 485.128906 17.835938 485.234375 C 20.46875 485.261719 23.308594 481.605469 25.175781 479.371094 Z M 44.246094 426.320312 C 44.535156 425.53125 51.109375 410.75 50.347656 407.933594 C 47.925781 411.722656 45.636719 415.5625 43.71875 419.613281 C 40.484375 426.398438 37.90625 433.527344 36.25 440.8125 C 40.246094 437.394531 42.273438 431.054688 44.246094 426.320312 Z M 201.238281 507.382812 C 202.972656 471.269531 185.089844 438.285156 148.582031 429.792969 C 111.917969 421.242188 77.648438 436.394531 69.414062 475.003906 C 62.128906 509.300781 75.726562 553.515625 114.363281 561.246094 C 155.210938 569.398438 195.714844 551.726562 201.238281 507.382812 Z M 248.683594 515.140625 C 246.898438 504.933594 251.394531 494.519531 260.257812 488.996094 C 246.082031 450.148438 220.964844 415.300781 183.5625 395.96875 C 143.085938 375.03125 94.242188 377.003906 58.050781 405.359375 C 59.65625 411.671875 54.527344 421.585938 52.34375 426.898438 C 48.558594 436 44.402344 447.914062 34.566406 450.492188 C 34.144531 453.882812 33.960938 457.277344 34.011719 460.695312 C 34.144531 478.871094 40.535156 485.601562 56.632812 488.445312 C 56.765625 485.445312 57.027344 482.5 57.449219 479.527344 C 63.46875 437.367188 96.347656 411.644531 138.957031 416.878906 C 160.101562 419.480469 178.800781 425.871094 192.296875 442.835938 C 205 458.855469 211.546875 477.976562 212.363281 498.019531 C 213.390625 498.910156 214.097656 500.28125 213.992188 502.121094 C 213.441406 510.851562 229.878906 514.140625 248.683594 515.140625 Z M 259.046875 466.351562 C 258.234375 434.421875 258.496094 402.515625 259.890625 370.5625 C 240.714844 371.296875 221.515625 372.164062 202.367188 373.191406 C 193.164062 373.664062 183.957031 374.191406 174.804688 374.742188 C 167.675781 375.191406 158.15625 374.613281 150.082031 376.292969 C 159.839844 378.136719 169.519531 381.027344 178.90625 385.132812 C 215.546875 401.203125 242.03125 431.238281 259.046875 466.351562 Z M 460.804688 362.277344 C 460.097656 333.921875 459.359375 305.542969 458.648438 277.191406 C 458.648438 276.535156 458.886719 276.007812 459.175781 275.613281 C 427.535156 274.71875 395.816406 274.429688 364.515625 278.269531 C 337.714844 281.558594 314.492188 289.683594 297.5 311.644531 C 284.851562 327.980469 276.539062 347.179688 265.886719 364.800781 C 306.363281 363.277344 346.921875 362.355469 387.425781 362.066406 C 411.886719 361.882812 436.371094 362.066406 460.804688 362.277344 Z M 463.988281 487.234375 C 462.988281 447.464844 461.9375 407.671875 460.964844 367.878906 C 438.84375 367.640625 416.75 367.457031 394.605469 367.5625 C 352.101562 367.800781 309.574219 368.695312 267.097656 370.273438 C 266.542969 370.273438 265.992188 370.296875 265.4375 370.351562 C 263.859375 406.804688 263.703125 443.285156 264.992188 479.765625 C 265.992188 482.238281 266.964844 484.710938 267.832031 487.234375 C 333.246094 488.339844 398.628906 488.339844 463.988281 487.234375 Z M 541.839844 503.015625 C 540.34375 501.671875 538.921875 500.515625 538.210938 499.699219 C 536.476562 497.753906 535.238281 495.703125 534.503906 493.441406 C 444.972656 495.992188 355.441406 496.519531 265.914062 494.992188 C 265.78125 494.992188 265.625 494.914062 265.464844 494.886719 C 262.492188 496.519531 260.074219 498.886719 258.441406 501.648438 C 352.890625 503.226562 447.394531 501.488281 541.839844 503.015625 Z M 545.707031 512.113281 C 546.628906 511.035156 546.707031 509.851562 546.3125 508.644531 C 449.679688 506.960938 352.96875 508.855469 256.339844 507.144531 C 255.839844 509.667969 255.839844 512.324219 256.496094 514.957031 C 256.523438 515.140625 256.496094 515.296875 256.523438 515.429688 C 275.75 515.902344 295.371094 514.535156 300.816406 514.585938 C 330.351562 514.667969 359.886719 514.746094 389.398438 514.851562 C 418.933594 514.929688 448.472656 514.980469 477.980469 515.0625 C 492.734375 515.140625 507.492188 515.167969 522.273438 515.21875 C 527.925781 515.21875 536.582031 516.164062 544.890625 515.851562 C 544.523438 514.667969 544.679688 513.296875 545.707031 512.113281 Z M 579.53125 446.941406 C 576.769531 438.761719 575.324219 427.976562 567.039062 424.875 C 554.808594 442.390625 546.757812 464.167969 540.945312 486.128906 C 541.339844 486.683594 541.605469 487.390625 541.527344 488.261719 C 541.078125 495.257812 550.308594 498.832031 552.992188 504.828125 C 554.542969 508.300781 554.519531 511.851562 552.914062 514.980469 C 558.726562 513.878906 563.671875 511.5625 566.460938 507.144531 C 565.117188 498.542969 565.011719 489.679688 566.222656 480.972656 C 568.117188 467.640625 572.773438 456.226562 579.53125 446.941406 Z M 625.347656 380.003906 C 589.945312 368.695312 551.808594 368.695312 514.933594 368.429688 C 498.757812 368.324219 482.636719 368.113281 466.488281 367.957031 C 467.488281 407.671875 468.539062 447.414062 469.539062 487.15625 C 490.710938 486.785156 511.882812 486.3125 533.054688 485.683594 C 545.890625 435.945312 570.035156 386.683594 625.347656 380.003906 Z M 687.578125 391.707031 C 678.160156 379.554688 670.035156 366.878906 658.226562 356.148438 C 645.546875 344.628906 635.316406 331.214844 621.5625 320.507812 C 586.554688 293.339844 543.839844 277.847656 499.496094 276.796875 C 487.609375 276.480469 475.667969 276.035156 463.671875 275.71875 C 463.988281 276.113281 464.199219 276.558594 464.199219 277.191406 C 464.9375 305.597656 465.644531 333.976562 466.355469 362.355469 C 484.820312 362.539062 503.28125 362.777344 521.71875 362.90625 C 560.726562 363.277344 601.125 363.960938 637.867188 378.554688 C 638.261719 378.6875 638.605469 378.949219 638.867188 379.214844 C 657.066406 379.292969 673.164062 383.949219 687.578125 391.707031 Z M 688.628906 384.105469 C 685.894531 374.925781 686.027344 365.433594 691.390625 356.515625 C 688.394531 352.78125 685.339844 349.125 682.105469 345.46875 C 650.753906 310.121094 610.171875 283.871094 565.589844 268.433594 C 514.410156 250.679688 459.542969 246.472656 405.730469 249.625 C 378.402344 251.203125 345.289062 251.257812 321.066406 265.40625 C 298.605469 278.558594 286.953125 303.703125 276.277344 326.296875 C 275.382812 328.214844 273.910156 329.058594 272.355469 329.136719 C 271.566406 329.636719 270.648438 330.03125 269.542969 330.136719 C 212.757812 335.238281 152.371094 335.054688 100.765625 362.589844 C 85.617188 370.667969 71.78125 381.214844 60.605469 394.074219 C 84.039062 378.53125 111.523438 372.113281 138.875 374.714844 C 151.1875 366.617188 171.148438 369.429688 185.113281 368.613281 C 207.601562 367.324219 230.039062 366.195312 252.5 365.273438 C 254.839844 365.195312 257.15625 365.144531 259.496094 365.039062 C 259.574219 364.695312 259.679688 364.378906 259.863281 364.039062 C 283.191406 326.480469 297.265625 286.292969 344.921875 275.824219 C 393.265625 265.222656 444.132812 270.695312 493.15625 271.140625 C 536.84375 271.535156 578.980469 283.84375 615.0625 308.832031 C 632.765625 321.113281 646.125 336.789062 661.644531 351.308594 C 672.347656 361.355469 680.132812 372.824219 688.628906 384.105469 Z M 710.144531 507.039062 C 711.90625 471.636719 693.023438 440.207031 657.488281 432.605469 C 621.796875 424.980469 586.972656 437.628906 578.347656 475.949219 C 570.21875 512.0625 588 555.011719 628.558594 559.273438 C 643.863281 560.851562 667.140625 560.824219 680.632812 553.039062 C 697.652344 543.203125 707.644531 526.292969 710.144531 507.039062 Z M 746.019531 440.257812 C 745.175781 439.179688 744.386719 438.078125 743.703125 436.972656 C 737.078125 426.1875 730.765625 415.246094 724.292969 404.4375 C 715.167969 389.15625 705.726562 374.847656 695.097656 361.144531 C 687.761719 375.296875 695.730469 391.074219 705.066406 403.199219 C 718.457031 413.667969 730.132812 426.792969 740.523438 441.074219 C 742.363281 440.679688 744.179688 440.445312 746.019531 440.257812 Z M 756.59375 480.210938 C 756.277344 479.949219 756.011719 479.605469 755.75 479.210938 C 730.105469 434.421875 695.574219 386.683594 638.105469 386.972656 C 607.332031 387.128906 585.816406 400.464844 570.457031 420.246094 C 578.714844 424.136719 580.6875 433.554688 583.527344 442.023438 C 599.230469 424.347656 623.636719 416.246094 651.019531 420.21875 C 673.136719 423.402344 690.65625 430.476562 704.253906 448.675781 C 713.800781 461.457031 719.21875 476.398438 720.824219 491.96875 C 732.527344 495.703125 744.335938 496.648438 756.304688 494.652344 C 755.855469 489.8125 755.910156 485 756.59375 480.210938 Z M 762.746094 467.824219 C 763.140625 459.617188 758.117188 453.621094 752.753906 447.835938 C 750.304688 447.703125 747.914062 447.78125 745.519531 448.070312 C 750.4375 455.226562 755.015625 462.589844 759.328125 469.925781 C 760.195312 468.902344 761.378906 468.164062 762.746094 467.824219 Z M 797.703125 476.109375 C 799.359375 470.03125 797.253906 463.273438 791.574219 460.167969 C 786.390625 457.328125 780.472656 457.882812 774.898438 459.277344 C 774.898438 459.828125 774.898438 460.433594 774.898438 461.011719 C 778.816406 464.246094 783 469.453125 780.160156 474.320312 C 778.371094 477.371094 775.160156 477.84375 771.953125 478.109375 C 770.691406 478.210938 769.453125 478.316406 768.21875 478.398438 C 767.324219 482.472656 766.875 486.578125 767.035156 490.679688 C 778.738281 491.914062 794.070312 489.363281 797.703125 476.109375 Z M 771.875 448.703125 C 789.390625 445.046875 809.90625 451.070312 809.300781 472.769531 C 808.746094 494.730469 785.3125 503.933594 766.535156 501.726562 C 766.507812 501.726562 766.480469 501.726562 766.429688 501.671875 C 765.957031 503.121094 764.773438 504.304688 762.824219 504.722656 C 748.832031 507.722656 734.945312 507.40625 721.269531 503.59375 C 721.269531 504.304688 721.269531 504.960938 721.269531 505.671875 C 721.296875 506.09375 721.296875 506.511719 721.21875 507.039062 C 721.21875 507.539062 721.113281 507.960938 721.007812 508.40625 C 718.085938 528.84375 709.25 546.121094 692.234375 558.5625 C 674.058594 571.820312 650.335938 572.054688 628.558594 570.371094 C 598.125 567.953125 577.609375 546.414062 569.40625 519.980469 C 552.097656 532.894531 518.644531 526.292969 500.128906 526.238281 C 459.519531 526.109375 418.933594 526.003906 378.324219 525.898438 C 337.714844 525.792969 297.078125 525.632812 256.496094 525.527344 C 243.742188 525.476562 221.488281 527.789062 210.023438 519.320312 C 205.917969 535.761719 197.582031 550.121094 183.351562 560.824219 C 165.335938 574.398438 141.453125 574.792969 119.652344 573.03125 C 80.75 569.898438 59.050781 535.179688 56.683594 499.542969 C 56.316406 499.542969 55.949219 499.542969 55.554688 499.464844 C 44.71875 497.832031 36.90625 493.992188 31.566406 488.679688 C 26.726562 493.625 20.703125 497.753906 13.339844 496.097656 C 4.238281 494.074219 2.847656 485 2.03125 477.132812 C 1.136719 468.085938 0.136719 456.910156 5.976562 449.148438 C 10.421875 443.285156 17.652344 441.363281 24.203125 444.574219 C 30.882812 416.507812 51.109375 385.65625 66.679688 372.375 C 122.019531 325.21875 198.816406 325.242188 267.410156 319.21875 C 277.984375 296.890625 289.742188 273.246094 310.679688 258.859375 C 333.140625 243.523438 362.542969 242 388.792969 239.738281 C 450.785156 234.425781 515.066406 238.054688 573.929688 259.675781 C 624.296875 278.191406 667.140625 309.253906 700.9375 350.835938 C 717.746094 371.535156 730.710938 393.601562 744.441406 416.589844 C 749.886719 425.636719 754.015625 434.421875 762.484375 441.128906 C 766.351562 444.203125 766.507812 442.046875 770.242188 446.414062 C 770.875 447.152344 771.375 447.941406 771.875 448.703125 " fill-opacity="1" fill-rule="nonzero"></path><path fill="#000000" d="M 717.296875 441.863281 C 726.792969 454.253906 730.316406 463.300781 729.6875 463.640625 C 728.792969 464.167969 723.953125 455.933594 713.90625 444.679688 C 703.964844 433.527344 687.917969 419.324219 666.378906 412.117188 C 655.648438 408.644531 644.785156 407.460938 635.027344 408.015625 C 625.269531 408.566406 616.5625 410.671875 609.671875 413.40625 C 595.757812 418.929688 589.027344 425.953125 588.289062 425.082031 C 588 424.792969 589.367188 422.796875 592.496094 419.746094 C 595.652344 416.667969 600.78125 412.828125 607.9375 409.382812 C 615.039062 405.910156 624.191406 403.199219 634.605469 402.28125 C 645.074219 401.386719 656.753906 402.464844 668.324219 406.199219 C 679.792969 410.09375 689.839844 415.929688 697.964844 422.347656 C 706.171875 428.792969 712.539062 435.710938 717.296875 441.863281 " fill-opacity="1" fill-rule="nonzero"></path><path fill="#000000" d="M 686.394531 508.773438 C 691.074219 487.023438 678.792969 462.589844 657.644531 455.539062 C 637.394531 448.832031 610.171875 451.332031 602.519531 474.636719 C 593.734375 501.253906 603.519531 534.578125 634.84375 537.679688 C 657.855469 540.757812 680.871094 534.550781 686.394531 508.773438 Z M 680.632812 464.273438 C 689.945312 476.765625 694.835938 493.414062 692.128906 508.933594 C 687.078125 537.917969 660.777344 546.675781 634.84375 543.230469 C 603.570312 540.125 589.816406 511.589844 595.023438 482.238281 C 600.125 453.621094 622.746094 443.019531 650.203125 448.125 C 663.222656 450.515625 672.480469 453.410156 680.632812 464.273438 " fill-opacity="1" fill-rule="nonzero"></path><path fill="#000000" d="M 647.285156 531.972656 C 671.140625 530.527344 685.421875 510.5625 677.820312 486.972656 C 671.847656 468.351562 659.382812 460.695312 640.972656 459.511719 C 630.765625 458.882812 618.902344 460.589844 612.644531 469.664062 C 606.4375 478.792969 605.492188 494.441406 607.671875 504.777344 C 612.171875 526.1875 628.820312 530.183594 647.285156 531.972656 Z M 685 493.625 C 688.394531 519.085938 671.796875 536.023438 647.285156 537.496094 C 637.15625 536.550781 625.769531 536.574219 617.167969 530.472656 C 607.671875 523.714844 602.703125 512.246094 601.492188 500.9375 C 598.835938 476.292969 609.671875 453.882812 636.472656 453.777344 C 645.417969 453.777344 659.015625 455.410156 666.957031 460.25 C 677.1875 466.480469 683.472656 482.5 685 493.625 " fill-opacity="1" fill-rule="nonzero"></path><path fill="#000000" d="M 647.285156 521.320312 C 666.40625 520.214844 672.585938 503.539062 666.140625 487.078125 C 661.300781 474.714844 652.097656 470.742188 639.394531 470.113281 C 622.351562 469.269531 617.535156 479.949219 617.824219 495.652344 C 618.0625 507.039062 622.902344 517.902344 635.132812 519.875 C 639.023438 520.503906 643.445312 520.953125 647.285156 521.320312 Z M 674.085938 495.703125 C 676.164062 513.957031 665.140625 525.816406 647.285156 526.84375 C 639.3125 526.082031 629.265625 526.371094 622.746094 521.058594 C 615.273438 514.980469 612.40625 504.933594 612.277344 495.652344 C 611.988281 477.476562 618.273438 464.0625 637.945312 464.484375 C 644.363281 464.640625 655.542969 465.746094 661.117188 469.585938 C 668.691406 474.847656 673.085938 487.050781 674.085938 495.703125 " fill-opacity="1" fill-rule="nonzero"></path><path fill="#000000" d="M 599.308594 352.703125 C 612.988281 345.628906 605.042969 328.058594 598.179688 320.324219 C 589.183594 310.171875 575.796875 305.253906 563.277344 301.152344 C 551.78125 297.628906 540.15625 294.574219 528.375 292.207031 C 518.355469 290.210938 501.652344 284.265625 492 288.949219 C 476.796875 296.339844 477.402344 316.40625 479.429688 330.765625 C 480.691406 339.261719 480.613281 347.390625 490.238281 350.335938 C 495.289062 351.914062 502.414062 350.597656 507.832031 350.757812 C 532.453125 351.28125 557.097656 351.78125 581.714844 352.308594 C 585.816406 352.414062 595.496094 354.621094 599.308594 352.703125 Z M 605.78125 321.140625 C 611.09375 329.164062 616.457031 344.363281 609.804688 353.226562 C 601.703125 364.066406 578.875 357.804688 567.644531 357.542969 C 544.207031 357.066406 520.722656 356.570312 497.285156 356.070312 C 485.160156 355.78125 476.480469 357.621094 474.21875 344.445312 C 472.378906 333.6875 473.640625 321.21875 473.40625 310.277344 C 473.324219 305.019531 472.0625 296.601562 474.746094 291.5 C 479.769531 281.953125 494.289062 282.320312 503.492188 282.660156 C 523.902344 283.371094 545.339844 289.921875 564.75 295.785156 C 580.03125 300.808594 596.46875 307.09375 605.78125 321.140625 " fill-opacity="1" fill-rule="nonzero"></path><path fill="#000000" d="M 437.449219 383.605469 C 442.289062 383.316406 447.15625 383.054688 451.996094 382.765625 C 451.890625 381.132812 451.601562 379.820312 449.890625 379.136719 C 447.972656 378.453125 444.316406 379.371094 442.238281 379.449219 C 437.898438 379.582031 431.058594 378.660156 426.957031 380.003906 C 421.039062 381.921875 425.984375 383.683594 429.453125 384.054688 C 432.007812 384.371094 434.898438 383.765625 437.449219 383.605469 Z M 457.730469 385.289062 C 457.992188 387.316406 456.28125 388.105469 454.703125 387.789062 C 454.335938 388.050781 453.890625 388.210938 453.363281 388.234375 C 447.15625 388.605469 440.949219 388.945312 434.769531 389.3125 C 431.058594 389.523438 425.800781 390.867188 422.222656 389.15625 C 417.488281 386.921875 416.777344 378.636719 421.066406 375.664062 C 423.722656 373.847656 427.71875 374.402344 430.742188 374.296875 C 436.6875 374.085938 442.660156 373.824219 448.601562 373.664062 C 451.707031 373.558594 454.785156 373.164062 456.730469 375.925781 C 458.703125 378.6875 457.359375 382.1875 457.730469 385.289062 " fill-opacity="1" fill-rule="nonzero"></path><path fill="#000000" d="M 448.601562 342.390625 C 448.707031 328.976562 448.601562 315.589844 448.472656 302.175781 C 448.390625 292.207031 446.65625 291.15625 436.292969 289.65625 C 431.347656 288.921875 425.878906 289.421875 420.90625 289.316406 C 389.6875 288.605469 350.65625 282.109375 323.777344 301.492188 C 316.59375 306.648438 311.203125 312.988281 306.574219 320.5625 C 304.339844 324.242188 297 335 297.683594 339.445312 C 299.421875 351.570312 335.191406 346.8125 345.054688 346.914062 C 356.519531 347.046875 447.3125 353.648438 448.601562 342.390625 Z M 454.074219 307.28125 C 454.230469 319.011719 454.230469 330.6875 454.152344 342.390625 C 452.257812 358.855469 436.03125 353.597656 422.957031 353.4375 C 395.816406 353.125 368.671875 352.753906 341.53125 352.414062 C 329.507812 352.28125 314.414062 354.386719 302.578125 351.941406 C 298.816406 351.152344 294.527344 351.835938 292.214844 347.679688 C 286.691406 337.972656 301.15625 318.035156 306.285156 311.09375 C 332.796875 275.269531 381.847656 282.925781 420.90625 283.765625 C 429.613281 283.949219 447.972656 279.375 453.152344 288.660156 C 455.625 293.15625 454.046875 302.414062 454.074219 307.28125 " fill-opacity="1" fill-rule="nonzero"></path><path fill="#000000" d="M 211.835938 449.703125 C 223.199219 465.457031 227.039062 476.925781 226.40625 477.1875 C 225.488281 477.6875 220.226562 467.007812 208.363281 452.410156 C 202.367188 445.203125 194.609375 437.105469 184.695312 429.816406 C 174.882812 422.507812 162.707031 416.246094 149.082031 412.667969 C 135.429688 409.171875 121.753906 408.855469 109.894531 411.460938 C 98.03125 413.957031 88.011719 419.0625 80.515625 424.425781 C 73.042969 429.898438 67.941406 435.550781 64.757812 439.679688 C 61.550781 443.835938 60.023438 446.386719 59.578125 446.152344 C 59.234375 446.019531 60.023438 443.101562 62.707031 438.3125 C 65.417969 433.632812 70.230469 427.1875 77.832031 420.953125 C 85.40625 414.773438 95.875 408.855469 108.628906 405.832031 C 121.359375 402.726562 136.089844 402.886719 150.632812 406.621094 C 165.152344 410.40625 178.011719 417.246094 188.191406 425.242188 C 198.398438 433.160156 206.101562 441.917969 211.835938 449.703125 " fill-opacity="1" fill-rule="nonzero"></path><path fill="#000000" d="M 178.25 505.199219 C 180.378906 483.210938 169.332031 460.878906 148.1875 453.59375 C 127.226562 446.386719 101.449219 450.015625 93.636719 473.664062 C 84.722656 500.570312 93.691406 536.050781 125.9375 539.390625 C 126.09375 539.390625 126.199219 539.46875 126.304688 539.496094 C 126.460938 539.496094 126.515625 539.46875 126.671875 539.496094 C 151.554688 542.914062 175.460938 533.472656 178.25 505.199219 Z M 144.003906 446.757812 C 172.359375 452.9375 188.113281 481.027344 183.195312 509.75 C 178.117188 539.101562 152.371094 548.304688 126.015625 544.9375 C 125.960938 544.9375 125.960938 544.9375 125.9375 544.9375 C 125.832031 544.9375 125.699219 544.886719 125.566406 544.859375 C 125.464844 544.859375 125.304688 544.859375 125.199219 544.835938 C 125.148438 544.835938 125.121094 544.835938 125.09375 544.78125 C 92.324219 540.863281 80.144531 508.195312 86.722656 478.210938 C 93.007812 449.675781 117.097656 440.917969 144.003906 446.757812 " fill-opacity="1" fill-rule="nonzero"></path><path fill="#000000" d="M 138.378906 533.445312 C 162.128906 531.921875 175.121094 512.429688 169.703125 489.152344 C 165.203125 469.953125 154.316406 461.433594 136.507812 458.617188 C 123.28125 456.515625 108.683594 458.277344 102.160156 472.292969 C 97.6875 482.027344 96.503906 494.597656 98.765625 505.117188 C 101.816406 519.636719 110.417969 529.105469 125.199219 531.894531 C 129.25 532.65625 134.535156 533.078125 138.378906 533.445312 Z M 176.144531 493.835938 C 179.195312 519.03125 163.941406 536.8125 139.585938 538.863281 C 139.246094 538.96875 138.824219 539.046875 138.378906 538.96875 C 128.199219 537.996094 116.835938 537.996094 108.261719 531.710938 C 98.742188 524.632812 93.925781 512.929688 92.664062 501.464844 C 89.773438 475.292969 100.898438 451.226562 129.828125 452.226562 C 155.605469 453.148438 172.882812 467.035156 176.144531 493.835938 " fill-opacity="1" fill-rule="nonzero"></path><path fill="#000000" d="M 138.378906 522.347656 C 156.417969 521.269531 162.890625 505.90625 158.417969 489.8125 C 154.261719 474.847656 144.242188 469.375 129.410156 468.847656 C 112.390625 468.269531 108.734375 480.660156 108.917969 495.570312 C 109.050781 507.039062 113.785156 518.769531 126.226562 520.875 C 130.117188 521.503906 134.535156 521.976562 138.378906 522.347656 Z M 165.230469 496.019531 C 167.097656 514.324219 156.550781 526.792969 138.378906 527.894531 C 130.328125 527.082031 120.308594 527.34375 113.835938 521.898438 C 106.261719 515.5625 103.527344 505.117188 103.394531 495.570312 C 103.082031 478.210938 108.261719 463.351562 127.566406 463.246094 C 134.800781 463.195312 146.265625 464.5625 152.476562 468.796875 C 160.15625 474.003906 164.335938 487.417969 165.230469 496.019531 " fill-opacity="1" fill-rule="nonzero"></path></svg>